<svg id="レイヤー_1" data-name="レイヤー 1" xmlns="http://www.w3.org/2000/svg" viewBox="0 0 512 512"><defs><style>.cls-1{fill:#fff;}.cls-2{fill:#54487a;}</style></defs><polygon class="cls-1" points="86.18 359.99 253.2 456.42 253.2 263.66 86.18 359.99"/><path class="cls-1" d="M290.48,155.31A33,33,0,0,1,261.61,188V249.1l167.22-96.44L261.61,56.11v66.55A33,33,0,0,1,290.48,155.31Z"/><path class="cls-1" d="M253.2,188a32.9,32.9,0,0,1,0-65.3V56.11l-167,96.44L253.2,249Z"/><polygon class="cls-1" points="432.84 352.7 432.84 160.06 265.92 256.33 432.84 352.7"/><polygon class="cls-1" points="261.61 456.42 428.63 359.99 261.61 263.55 261.61 456.42"/><path class="cls-2" d="M256.27,0C114.73,0,0,114.73,0,256.27S114.73,512.53,256.27,512.53,512.53,397.8,512.53,256.27,397.8,0,256.27,0Zm9.65,256.33,166.92-96.27V352.7Zm-4.31-7.23V188a32.9,32.9,0,0,0,0-65.3V56.11l167.22,96.55Zm-8.41-193v66.55a32.9,32.9,0,0,0,0,65.3v61l-167-96.44Zm0,207.55V456.42L86.18,360Zm8.41,192.76V263.55l167,96.44Z"/></svg>