<svg id="レイヤー_1" data-name="レイヤー 1" xmlns="http://www.w3.org/2000/svg" viewBox="0 0 512 512"><defs><style>.cls-1{fill:#54487a;}</style></defs><polygon class="cls-1" points="85.52 359.31 252.06 455.45 252.06 263.26 85.52 359.31"/><path class="cls-1" d="M289.22,155.23a32.87,32.87,0,0,1-28.78,32.55v61l166.73-96.17L260.44,56.32v66.35A32.87,32.87,0,0,1,289.22,155.23Z"/><path class="cls-1" d="M252.06,187.78a32.8,32.8,0,0,1,0-65.11V56.32L85.51,152.47l166.55,96.16Z"/><polygon class="cls-1" points="431.17 352.04 431.17 159.96 264.74 255.95 431.17 352.04"/><polygon class="cls-1" points="260.44 455.45 426.98 359.31 260.44 263.15 260.44 455.45"/><path class="cls-1" d="M256,512A256,256,0,0,1,75,75,256,256,0,0,1,437,437,254.33,254.33,0,0,1,256,512Zm0-489.66C127.16,22.34,22.34,127.16,22.34,256S127.16,489.66,256,489.66,489.66,384.84,489.66,256,384.84,22.34,256,22.34Z"/></svg>